<svg xmlns="http://www.w3.org/2000/svg" width="1500" height="275" xml:space="preserve" data-id="lg_SZvvtzCDH7cyX30xo7" data-version="1">
 <g>
  <title>Layer 1</title>
     <g data-padding="20" id="svg_1" stroke="null">
   <g transform="translate(-1659.61 -1260.32) scale(2.58567 2.58567)" id="svg_2" stroke="null">
    <rect width="444.021" height="81.36" x="762.6693" y="497.85363" fill="none" id="svg_3" stroke="null"/>
       <path fill="#303030" d="m772.96931,560.65363l-6.34,0l0,-50.4l6.34,0l0,21.89l2.59,0l15.12,-21.89l6.55,0l0,1.15l-16.56,23.76l16.56,24.34l0,1.15l-6.55,0l-15.12,-22.47l-2.59,0l0,22.47zm26.5,0l0,-50.4l6.33,0l0,44.64l17.07,0l0,5.76l-23.4,0zm26.28,-50.4l25.2,0l0,5.76l-18.87,0l0,17.13q2.38,-1 5.37,-1.54q2.98,-0.54 6.08,-0.69q3.1,-0.14 5.62,0.29l0,5.47l-0.58,0.43q-1.94,-0.57 -4.86,-0.57t-6.01,0.5q-3.1,0.51 -5.62,1.66l0,16.2l18.87,0l0,5.76l-25.2,0l0,-50.4zm61.48,33.83l0,-33.84l-6.4,0l0,33.33q0,3.82 -1.34,6.41q-1.33,2.59 -3.63,3.96q-2.31,1.37 -5.33,1.37t-5.4,-1.37t-3.71,-3.96t-1.33,-6.41l0,-33.33l-6.41,0l0,33.84q0,5.04 1.51,8.39q1.52,3.34 4,5.32t5.47,2.81t5.87,0.83t5.8,-0.83q2.91,-0.83 5.4,-2.81q2.48,-1.98 3.99,-5.32q1.51,-3.35 1.51,-8.39m4.9,16.57l0.14,-50.4l6.2,0l0,50.4l-6.34,0zm2.38,-50.4l14.76,0q4.24,0 7.56,1.69q3.31,1.69 5.22,5.08q1.9,3.38 1.9,8.42q0,4.9 -1.98,8.28t-5.22,5.15q-3.24,1.76 -7.05,1.76l-15.19,0l0,-30.38zm3.52,5.76l0,19.08l10.73,0q2.45,0 4.39,-1.08q1.95,-1.08 3.14,-3.21q1.18,-2.12 1.18,-5.07q0,-3.24 -1.18,-5.4q-1.19,-2.16 -3.14,-3.24q-1.94,-1.08 -4.39,-1.08l-10.73,0zm19.44,44.64l-10.8,-23.55l5.98,-0.79l11.3,23.19l0,1.15l-6.48,0zm8.13,-25.2q0,-6.63 1.8,-11.52q1.8,-4.9 4.86,-8.1q3.06,-3.21 6.95,-4.79t8.06,-1.58q4.03,0 6.66,0.86t3.78,2.02l0,6.19l-1.15,0q-1.22,-1.44 -3.46,-2.27q-2.23,-0.83 -5.54,-0.83q-4.46,0 -7.96,2.31q-3.49,2.3 -5.47,6.76q-1.98,4.47 -1.98,10.95t1.98,10.94q1.98,4.47 5.44,6.77q3.45,2.3 7.92,2.3q3.31,0 5.58,-0.82q2.27,-0.83 3.49,-2.27l1.15,0l0,6.19q-1.15,1.08 -3.78,1.98t-6.8,0.9q-4.25,0 -8.14,-1.58q-3.89,-1.59 -6.91,-4.79q-3.02,-3.21 -4.75,-8.1q-1.73,-4.9 -1.73,-11.52m33.78,0q0,-9.22 2.95,-14.94q2.95,-5.73 7.74,-8.43t10.4,-2.7q5.62,0 10.41,2.7t7.74,8.43q2.95,5.72 2.95,14.94q0,9.14 -2.95,14.9t-7.74,8.46t-10.41,2.7q-5.61,0 -10.4,-2.7t-7.74,-8.46t-2.95,-14.9m6.55,0q0,6.69 1.91,11.16q1.91,4.46 5.22,6.66q3.31,2.19 7.41,2.19q4.04,0 7.35,-2.19q3.31,-2.2 5.29,-6.66q1.98,-4.47 1.98,-11.16q0,-6.77 -2.02,-11.2q-2.01,-4.43 -5.32,-6.62q-3.32,-2.2 -7.28,-2.2q-4.1,0 -7.41,2.23q-3.31,2.24 -5.22,6.66q-1.91,4.43 -1.91,11.13m66.46,15.55l-0.29,-40.75l6.26,0l0,50.4l-8.71,0l-17.35,-40.54l-0.94,0l0.15,40.54l-6.2,0l0,-50.4l8.72,0l17.42,40.75l0.94,0zm8.56,-40.75l28.66,0l0,5.83l-11.09,0l0,44.57l-6.33,0l0,-44.57l-11.24,0l0,-5.83zm31.11,50.4l0.14,-50.4l6.19,0l0,50.4l-6.33,0zm2.37,-50.4l14.76,0q4.25,0 7.56,1.69q3.32,1.69 5.22,5.08q1.91,3.38 1.91,8.42q0,4.9 -1.98,8.28t-5.22,5.15q-3.24,1.76 -7.05,1.76l-15.2,0l0,-30.38zm3.53,5.76l0,19.08l10.73,0q2.45,0 4.39,-1.08q1.95,-1.08 3.13,-3.21q1.19,-2.12 1.19,-5.07q0,-3.24 -1.19,-5.4q-1.18,-2.16 -3.13,-3.24q-1.94,-1.08 -4.39,-1.08l-10.73,0zm19.44,44.64l-10.8,-23.55l5.98,-0.79l11.3,23.19l0,1.15l-6.48,0zm13.32,0l-6.48,0l0,-1.3l12.24,-49.1l14.26,0.07l12.17,49.03l0,1.3l-6.48,0l-3.89,-16.2l-17.93,0l-3.89,16.2zm10.37,-44.5l-5.33,22.68l15.7,0l-5.4,-22.68l-4.97,0zm51.91,32.55q0,3.96 -1.83,6.84q-1.84,2.88 -5.08,4.42q-3.24,1.55 -7.63,1.55q-3.46,0 -6.37,-0.83q-2.92,-0.82 -4.97,-1.98q-2.05,-1.15 -3.06,-1.94l0,-6.19l0.93,0q2.24,1.94 5.8,3.53q3.56,1.58 7.16,1.58q2.31,0 4.29,-0.68q1.98,-0.69 3.17,-2.2q1.18,-1.51 1.18,-3.74q0,-2.81 -1.44,-4.65q-1.44,-1.83 -4.39,-3.63l-8.71,-5.48q-2.02,-1.29 -4.14,-2.98q-2.12,-1.7 -3.53,-4.18q-1.4,-2.48 -1.4,-6.08q0,-4.11 1.87,-6.92q1.87,-2.8 5.04,-4.24t7.13,-1.44q3.53,0 6.19,0.72t4.54,1.8q1.87,1.08 2.95,2.16l0,6.19l-1.01,0q-1.8,-2.09 -5.11,-3.57q-3.31,-1.47 -7.42,-1.47q-3.38,0 -5.58,1.62q-2.19,1.62 -2.19,4.64q0,2.81 1.94,4.83q1.94,2.01 4.68,3.74l8.06,5.04q2.45,1.51 4.47,3.38q2.01,1.88 3.24,4.32q1.22,2.45 1.22,5.84m0.21,-38.45l28.65,0l0,5.83l-11.08,0l0,44.57l-6.34,0l0,-44.57l-11.23,0l0,-5.83z" id="svg_4" stroke="null"/>
       <path fill="#ec0000" d="m674.18931,526.84763a27.996,27.996 0 1 0 0,55.992a27.996,27.996 0 1 0 0,-55.992" id="svg_5" stroke="null"/>
       <path fill="#07c100" d="m715.63931,526.84763a27.996,27.996 0 1 0 0,55.992a27.996,27.996 0 1 0 0,-55.992" id="svg_6" stroke="null"/>
       <path fill="#286cff" d="m695.29931,493.33763a27.996,27.996 0 1 0 0,55.992a27.996,27.996 0 1 0 0,-55.992" id="svg_7" stroke="null"/>
   </g>
         <path fill="transparent" stroke-width="2.686" d="m56.109,10.109l1431.89,0l0,241.781l-1431.89,0l0,-241.781z" id="svg_8" stroke="transparent"/>
  </g>
 </g>

</svg>